<svg xmlns="http://www.w3.org/2000/svg" version="1.1" xmlns:xlink="http://www.w3.org/1999/xlink" xmlns:svgjs="http://svgjs.dev/svgjs" width="1500" height="1500" viewBox="0 0 1500 1500"><rect width="1500" height="1500" fill="#ffffff"></rect><g transform="matrix(0.6666666666666666,0,0,0.6666666666666666,249.40279084534967,381.77572335923674)"><svg viewBox="0 0 396 292" data-background-color="#d2d6dc" preserveAspectRatio="xMidYMid meet" height="1106" width="1500" xmlns="http://www.w3.org/2000/svg" xmlns:xlink="http://www.w3.org/1999/xlink"><g id="tight-bounds" transform="matrix(1,0,0,1,0.24350517475852484,11.563799327235301)"><svg viewBox="0 0 395.52 280.3360698987003" height="280.3360698987003" width="395.52"><g><svg viewBox="0 0 395.52 280.3360698987003" height="280.3360698987003" width="395.52"><g transform="matrix(1,0,0,1,0,143.55534269952742)"><svg viewBox="0 0 395.52 136.7807271991729" height="136.7807271991729" width="395.52"><g id="textblocktransform"><svg viewBox="0 0 395.52 136.7807271991729" height="136.7807271991729" width="395.52" id="textblock"><g><svg viewBox="0 0 395.52 90.50654978422341" height="90.50654978422341" width="395.52"><g transform="matrix(1,0,0,1,0,0)"><svg width="395.52" viewBox="-0.33091614921233353 -10.73094017583888 237.17568834270094 54.27357326030675" height="90.50654978422341" data-palette-color="#6b7280"><path d="M5.345 15.784v0c-2.297-0.72-3.918-1.933-4.864-3.641-0.95-1.716-1.071-3.706-0.361-5.971v0c0.367-1.171 0.924-2.191 1.672-3.061 0.743-0.878 1.773-1.533 3.089-1.966 1.312-0.441 3.004-0.592 5.077-0.452 2.075 0.133 4.626 0.632 7.653 1.496v0c0.446-1.425 0.411-2.561-0.106-3.408-0.517-0.847-1.485-1.492-2.904-1.936v0c-1.279-0.401-2.394-0.509-3.346-0.326-0.95 0.177-1.551 0.314-1.804 0.41v0c-0.274 0.117-0.56 0.104-0.858-0.039v0c-0.406-0.197-0.821-0.446-1.244-0.746-0.427-0.309-0.883-0.65-1.366-1.025v0c-0.073-0.058-0.143-0.136-0.21-0.233-0.073-0.1-0.095-0.222-0.063-0.366v0c0.024-0.076 0.061-0.173 0.111-0.29 0.049-0.111 0.154-0.312 0.315-0.603v0c0.161-0.292 0.378-0.65 0.651-1.075 0.264-0.42 0.493-0.736 0.685-0.949v0c0.224-0.223 0.535-0.402 0.933-0.535v0c0.335-0.133 1.249-0.23 2.743-0.293 1.496-0.069 3.519 0.296 6.071 1.095v0c7.011 2.197 9.447 6.708 7.307 13.534v0l-4.156 13.264c-0.094 0.299-0.256 0.528-0.487 0.685-0.231 0.158-0.541 0.176-0.929 0.055v0l-3.511-1.1c-0.254-0.08-0.466-0.184-0.636-0.314-0.175-0.132-0.317-0.326-0.424-0.584v0l-0.865-2.325-0.162-0.051c-1.046 0.818-2.25 1.272-3.613 1.363-1.354 0.086-2.82-0.119-4.398-0.613zM9.623 11.161v0c1.438 0.45 2.638 0.421 3.601-0.087 0.967-0.5 1.675-1.11 2.124-1.829v0l0.813-2.595c-2.169-0.68-3.85-1.025-5.041-1.035-1.194-0.004-2.053 0.209-2.579 0.638-0.532 0.427-0.896 0.952-1.091 1.576v0c-0.283 0.903-0.197 1.622 0.257 2.156 0.45 0.525 1.089 0.918 1.916 1.176zM54.64 11.7v0l-3.19 13.98c-0.11 0.481-0.283 0.79-0.519 0.928-0.243 0.136-0.605 0.149-1.086 0.04v0l-4.933-1.126c-0.474-0.108-0.792-0.276-0.952-0.504-0.16-0.228-0.185-0.582-0.075-1.063v0l2.904-12.733c0.397-1.742 0.32-3.096-0.232-4.064-0.554-0.961-1.461-1.585-2.722-1.872v0c-1.254-0.286-2.284-0.237-3.09 0.147-0.799 0.385-1.479 0.952-2.039 1.699v0l-3.391 14.868c-0.11 0.481-0.283 0.79-0.519 0.928-0.243 0.136-0.605 0.149-1.086 0.039v0l-4.924-1.123c-0.481-0.11-0.801-0.279-0.961-0.507-0.16-0.228-0.185-0.582-0.076-1.063v0l4.577-20.065c0.087-0.383 0.236-0.661 0.446-0.831v0c0.439-0.365 0.945-0.725 1.518-1.08 0.575-0.361 1.267-0.727 2.076-1.095v0c0.244-0.109 0.46-0.141 0.648-0.099v0c0.175 0.04 0.359 0.164 0.551 0.372v0c0.549 0.679 1.01 1.314 1.381 1.905 0.365 0.589 0.675 1.18 0.93 1.771v0l0.117 0.027c0.353-0.289 0.853-0.606 1.499-0.951 0.654-0.35 1.514-0.595 2.578-0.735 1.066-0.147 2.363-0.046 3.89 0.303v0c1.501 0.342 2.862 0.974 4.08 1.895 1.221 0.914 2.099 2.188 2.636 3.822 0.543 1.635 0.531 3.697-0.036 6.187zM67.905 18.991l-1.25 8.872c-0.069 0.489-0.215 0.811-0.44 0.968-0.231 0.156-0.59 0.2-1.078 0.131v0l-5.001-0.705c-0.489-0.069-0.822-0.21-1.001-0.424-0.179-0.214-0.233-0.565-0.164-1.053v0l4.636-32.895c0.055-0.389 0.18-0.678 0.375-0.866v0c0.806-0.795 1.938-1.619 3.398-2.47v0c0.248-0.133 0.461-0.188 0.638-0.162v0c0.211 0.03 0.404 0.141 0.579 0.334v0c0.618 0.632 1.135 1.217 1.551 1.753 0.409 0.536 0.753 1.055 1.032 1.56v0c0.129 0.234 0.166 0.545 0.111 0.934v0l-2.689 19.082 0.297 0.042c2.462 0.347 4.198 0.141 5.207-0.62 1.008-0.753 1.624-1.919 1.846-3.496v0l0.184-1.307c0.055-0.389 0.176-0.679 0.365-0.868v0c0.806-0.795 1.938-1.619 3.398-2.47v0c0.254-0.132 0.471-0.186 0.649-0.161v0c0.205 0.029 0.394 0.14 0.569 0.333v0c0.624 0.633 1.141 1.218 1.55 1.753 0.409 0.536 0.753 1.055 1.033 1.56v0c0.129 0.234 0.166 0.545 0.111 0.934v0l-0.185 1.307c-0.13 0.924-0.456 1.922-0.977 2.993-0.52 1.064-1.32 1.958-2.398 2.682-1.079 0.73-2.51 1.043-4.293 0.94v0l-0.017 0.119c1.275 0.792 2.338 1.753 3.189 2.883 0.845 1.122 1.521 2.295 2.029 3.517 0.508 1.223 0.871 2.371 1.09 3.446 0.218 1.081 0.333 1.986 0.344 2.715v0c0.02 0.717-0.263 1.033-0.851 0.95v0l-6.386-0.9c-0.555-0.078-0.824-0.456-0.81-1.134v0c-0.005-0.775-0.127-1.704-0.365-2.788-0.238-1.084-0.607-2.166-1.107-3.246-0.502-1.074-1.155-2.004-1.96-2.791-0.806-0.78-1.776-1.25-2.912-1.41v0zM89.346-1.619v0c0.017-0.213 0.096-0.397 0.235-0.553 0.146-0.149 0.336-0.344 0.57-0.585v0c0.494-0.488 1.068-0.997 1.719-1.526 0.652-0.529 1.308-1.038 1.97-1.526v0c0.417-0.28 0.726-0.413 0.925-0.396v0c0.193 0.016 0.482 0.196 0.869 0.542v0c1.23 1.244 2.266 2.445 3.108 3.603v0c0.187 0.256 0.343 0.476 0.469 0.66 0.126 0.184 0.18 0.382 0.162 0.596v0c-0.017 0.213-0.102 0.393-0.255 0.541-0.153 0.155-0.354 0.363-0.602 0.623v0c-0.48 0.469-1.039 0.969-1.677 1.499-0.632 0.531-1.278 1.033-1.938 1.508v0c-0.248 0.174-0.438 0.285-0.569 0.335-0.137 0.042-0.262 0.059-0.376 0.05v0c-0.113-0.009-0.23-0.045-0.352-0.109-0.115-0.07-0.294-0.211-0.537-0.425v0c-0.615-0.578-1.185-1.18-1.71-1.804-0.524-0.625-0.991-1.224-1.399-1.799v0c-0.191-0.283-0.347-0.506-0.467-0.67-0.114-0.163-0.162-0.351-0.145-0.564zM97.424 8.619l-1.825 22.466c-0.04 0.492-0.167 0.823-0.381 0.992-0.221 0.169-0.578 0.234-1.07 0.194v0l-5.033-0.409c-0.492-0.04-0.833-0.161-1.024-0.364-0.191-0.203-0.266-0.55-0.226-1.041v0l1.824-22.466c0.04-0.492 0.17-0.822 0.392-0.992 0.221-0.169 0.578-0.234 1.069-0.194v0l5.033 0.409c0.492 0.04 0.833 0.161 1.024 0.364 0.184 0.202 0.256 0.549 0.217 1.041zM112.752 33.606v0c-5.464-0.162-8.112-3.082-7.944-8.759v0l0.341-11.505-2.779-0.083c-0.486-0.014-0.823-0.128-1.011-0.34-0.18-0.212-0.263-0.561-0.249-1.048v0l0.09-3.018c0.015-0.493 0.118-0.84 0.311-1.042 0.199-0.194 0.542-0.284 1.028-0.269v0l2.779 0.082 0.117-3.958c0.011-0.387 0.1-0.684 0.267-0.893v0c0.713-0.879 1.748-1.826 3.106-2.839v0c0.238-0.153 0.447-0.227 0.626-0.221v0c0.193 0.006 0.387 0.092 0.583 0.257v0c0.684 0.56 1.262 1.088 1.734 1.582 0.466 0.487 0.865 0.966 1.198 1.436v0c0.154 0.218 0.225 0.52 0.213 0.907v0l-0.117 3.958 4.348 0.129c0.486 0.014 0.823 0.124 1.01 0.33 0.18 0.212 0.263 0.565 0.249 1.058v0l-0.089 3.019c-0.014 0.486-0.118 0.83-0.311 1.031-0.199 0.201-0.542 0.294-1.029 0.28v0l-4.348-0.129-0.301 10.155c-0.078 2.619 0.833 3.956 2.732 4.013v0c0.293 0.009 0.564-0.01 0.812-0.056 0.248-0.053 0.463-0.11 0.646-0.171v0c0.344-0.117 0.585-0.159 0.724-0.129 0.139 0.037 0.26 0.221 0.364 0.551v0l1.316 3.851c0.135 0.411 0.026 0.701-0.326 0.871v0c-0.25 0.113-0.85 0.315-1.798 0.607-0.949 0.285-2.38 0.4-4.292 0.343zM135.269-0.583v0c-0.011-0.213 0.042-0.406 0.16-0.579 0.125-0.167 0.287-0.386 0.486-0.657v0c0.425-0.55 0.925-1.13 1.501-1.741 0.575-0.611 1.159-1.202 1.75-1.774v0c0.376-0.334 0.664-0.506 0.864-0.516v0c0.193-0.01 0.504 0.13 0.933 0.422v0c1.385 1.069 2.571 2.122 3.56 3.158v0c0.219 0.229 0.403 0.426 0.552 0.592 0.149 0.166 0.229 0.355 0.24 0.568v0c0.011 0.213-0.049 0.403-0.18 0.57-0.131 0.174-0.302 0.406-0.514 0.698v0c-0.413 0.529-0.9 1.099-1.463 1.709-0.555 0.61-1.129 1.194-1.72 1.752v0c-0.223 0.205-0.396 0.341-0.52 0.408-0.13 0.06-0.252 0.093-0.365 0.099v0c-0.113 0.006-0.234-0.014-0.364-0.061-0.123-0.054-0.319-0.17-0.589-0.349v0c-0.687-0.491-1.331-1.012-1.934-1.561-0.603-0.549-1.145-1.081-1.626-1.597v0c-0.227-0.255-0.411-0.456-0.552-0.602-0.135-0.146-0.207-0.326-0.219-0.539zM144.637 8.488l1.181 22.509c0.026 0.493-0.056 0.837-0.246 1.035-0.197 0.197-0.541 0.309-1.034 0.334v0l-5.043 0.265c-0.493 0.026-0.847-0.049-1.063-0.225-0.216-0.176-0.337-0.51-0.363-1.002v0l-1.181-22.509c-0.026-0.493 0.06-0.838 0.256-1.035 0.197-0.197 0.541-0.309 1.034-0.334v0l5.043-0.265c0.493-0.026 0.847 0.049 1.063 0.225 0.21 0.176 0.327 0.51 0.353 1.002zM165.928 4.218v0c2.378-0.272 4.396 0.037 6.055 0.927 1.659 0.89 2.972 2.223 3.94 3.998 0.968 1.775 1.59 3.868 1.867 6.278v0c0.298 2.603 0.126 4.995-0.517 7.176-0.649 2.181-1.769 3.98-3.358 5.397-1.583 1.416-3.649 2.27-6.199 2.562v0c-1.318 0.151-2.421 0.126-3.309-0.074-0.889-0.2-1.612-0.48-2.17-0.839-0.564-0.358-1.012-0.689-1.342-0.993v0l-0.099 0.011 1.19 10.392c0.045 0.391 0 0.701-0.135 0.931v0c-0.58 0.972-1.469 2.054-2.668 3.245v0c-0.214 0.186-0.41 0.288-0.589 0.309v0c-0.192 0.022-0.403-0.034-0.633-0.169v0c-0.764-0.456-1.411-0.892-1.941-1.308-0.531-0.422-0.995-0.839-1.392-1.249v0c-0.19-0.193-0.307-0.485-0.352-0.876v0l-3.445-30.083c-0.045-0.391 0.004-0.702 0.145-0.933v0c0.293-0.49 0.651-0.997 1.074-1.522 0.422-0.531 0.954-1.106 1.594-1.723v0c0.194-0.183 0.403-0.288 0.629-0.313v0c0.212-0.024 0.443 0.03 0.693 0.162v0c0.744 0.458 1.385 0.905 1.925 1.34 0.546 0.434 1.038 0.888 1.474 1.361v0l0.119-0.014c0.239-0.37 0.613-0.832 1.12-1.386 0.513-0.555 1.276-1.079 2.286-1.571 1.003-0.497 2.349-0.843 4.038-1.036zM165.216 24.541v0c1.762-0.202 3.056-0.971 3.883-2.306 0.827-1.336 1.107-3.17 0.839-5.502v0c-0.502-4.385-2.558-6.37-6.168-5.957v0c-1.53 0.175-2.627 0.616-3.29 1.323-0.657 0.713-1.101 1.435-1.333 2.166v0l0.607 5.295c0.181 1.576 0.739 2.848 1.675 3.815 0.935 0.96 2.198 1.349 3.787 1.166zM209.356 22.986v0c-5.325 1.235-8.63-0.913-9.914-6.446v0l-2.601-11.212-2.708 0.628c-0.474 0.11-0.829 0.086-1.064-0.071-0.229-0.159-0.398-0.476-0.508-0.95v0l-0.682-2.942c-0.112-0.481-0.1-0.843 0.035-1.086 0.143-0.239 0.452-0.413 0.926-0.523v0l2.708-0.628-0.895-3.858c-0.087-0.377-0.077-0.687 0.031-0.931v0c0.466-1.032 1.225-2.211 2.279-3.536v0c0.191-0.209 0.374-0.333 0.55-0.374v0c0.188-0.044 0.398-0.01 0.629 0.1v0c0.804 0.368 1.497 0.731 2.08 1.088 0.575 0.353 1.083 0.714 1.524 1.084v0c0.204 0.172 0.35 0.446 0.437 0.822v0l0.895 3.858 4.238-0.983c0.474-0.11 0.828-0.089 1.061 0.061 0.229 0.159 0.399 0.479 0.51 0.96v0l0.683 2.942c0.11 0.474 0.097 0.833-0.038 1.076-0.142 0.245-0.449 0.423-0.924 0.533v0l-4.237 0.983 2.296 9.897c0.592 2.552 1.814 3.614 3.665 3.184v0c0.286-0.066 0.543-0.153 0.771-0.261 0.227-0.114 0.42-0.224 0.58-0.33v0c0.303-0.2 0.525-0.303 0.668-0.308 0.144 0.001 0.308 0.148 0.492 0.44v0l2.254 3.388c0.235 0.363 0.204 0.671-0.093 0.925v0c-0.213 0.173-0.741 0.521-1.585 1.045-0.845 0.518-2.199 0.993-4.063 1.425zM224.567 15.84v0c-1.274-1.105-2.601-2.421-3.981-3.947-1.372-1.522-2.675-3.092-3.909-4.711-1.234-1.619-2.281-3.124-3.14-4.515-0.865-1.389-1.421-2.492-1.668-3.309v0c-0.094-0.313-0.086-0.597 0.024-0.853v0c0.451-1.111 1.194-2.352 2.228-3.724v0c0.188-0.231 0.378-0.375 0.569-0.433v0c0.204-0.062 0.439-0.046 0.704 0.049v0c0.877 0.299 1.63 0.601 2.259 0.905 0.635 0.303 1.191 0.622 1.668 0.959v0c0.234 0.152 0.408 0.417 0.522 0.793v0l-0.035-0.115c0.307 1.015 0.891 2.294 1.755 3.836 0.869 1.541 1.904 3.133 3.104 4.777 1.191 1.639 2.443 3.096 3.754 4.371v0l0.115-0.035c0.359-1.369 0.61-2.81 0.752-4.322 0.14-1.519 0.195-3.008 0.165-4.469-0.037-1.458-0.127-2.782-0.27-3.971-0.141-1.183-0.319-2.129-0.533-2.837v0l0.028 0.095c-0.114-0.377-0.125-0.69-0.033-0.94v0c0.231-0.55 0.52-1.125 0.868-1.725 0.348-0.6 0.789-1.262 1.322-1.987v0c0.169-0.225 0.349-0.367 0.541-0.424v0c0.217-0.066 0.445-0.047 0.685 0.054v0c0.858 0.305 1.598 0.611 2.22 0.917 0.628 0.305 1.181 0.625 1.659 0.961v0c0.215 0.158 0.374 0.409 0.478 0.754v0c0.244 0.853 0.382 2.106 0.415 3.761 0.04 1.653-0.022 3.499-0.186 5.54-0.157 2.039-0.409 4.076-0.755 6.11-0.342 2.026-0.773 3.827-1.292 5.404v0c-0.308 0.964-0.63 1.674-0.966 2.131-0.34 0.465-1.053 0.861-2.137 1.188v0l-2.489 0.752c-1.13 0.341-1.955 0.42-2.477 0.237-0.528-0.182-1.183-0.607-1.964-1.277zM211.898-0.546l-0.035-0.115 0.006 0.019c0.01 0.032 0.019 0.064 0.029 0.096zM236.403-8.054v0l0.029 0.096-0.014-0.048c-0.004-0.013-0.009-0.029-0.015-0.048z" opacity="1" transform="matrix(1,0,0,1,0,0)" fill="#000000" class="wordmark-text-0" data-fill-palette-color="primary" id="text-0"></path></svg></g></svg></g><g transform="matrix(1,0,0,1,118.31980799999998,124.37962728599597)"><svg viewBox="0 0 158.88038400000002 12.401099913176937" height="12.401099913176937" width="158.88038400000002"><g transform="matrix(1,0,0,1,0,0)"><svg width="158.88038400000002" viewBox="0.9 -35 456.05 35.6" height="12.401099913176937" data-palette-color="#6b7280"><path d="M22.55 0L17.5-20.25 12.4 0 8.55 0 0.9-25.05 3.85-25.05 10.5-2.9 16.15-25.05 19-25.05 24.5-2.9 31.2-25.05 34.15-25.05 26.4 0 22.55 0ZM52.7 0L52.7-17.15Q52.7-20.2 50.92-21.58 49.15-22.95 46.35-22.95L46.35-22.95Q44.65-22.95 42.9-22.48 41.15-22 39.8-21.25L39.8-21.25 39.8 0 37 0 37-35 39.8-35 39.8-23.7Q41.05-24.55 42.8-25.03 44.55-25.5 46.45-25.5L46.45-25.5Q49.05-25.5 51.2-24.55L51.2-24.55Q53.2-23.65 54.32-21.85 55.45-20.05 55.45-17.3L55.45-17.3 55.45 0 52.7 0ZM76.95-1.75Q75.15-0.6 72.85 0 70.55 0.6 68.25 0.6L68.25 0.6Q64.55 0.6 62.37-1.23 60.2-3.05 60.2-6.7L60.2-6.7 60.2-16.95Q60.2-21 62.72-23.25 65.25-25.5 69.4-25.5L69.4-25.5Q73.55-25.5 75.87-23.28 78.2-21.05 78.2-17.1L78.2-17.1 78.2-10.6 63-9.75 63-6.7Q63-4.3 64.55-3.1 66.1-1.9 68.6-1.9L68.6-1.9Q72.1-1.9 75.85-3.9L75.85-3.9 76.95-1.75ZM75.4-17.45Q75.4-20.55 73.45-21.83 71.5-23.1 69.35-23.1L69.35-23.1Q66.6-23.1 64.8-21.6 63-20.1 63-16.9L63-16.9 63-12.5 75.4-13.1 75.4-17.45ZM83.19 0L83.19-25.05 85.99-25.05 85.84-23.3Q88.19-25.5 91.99-25.5L91.99-25.5Q93.34-25.5 95.69-25.05L95.69-25.05 94.94-22.5Q93.34-23 91.59-23L91.59-23Q89.29-23 87.64-22.15 85.99-21.3 85.99-19.6L85.99-19.6 85.99 0 83.19 0ZM112.99-1.75Q111.19-0.6 108.89 0 106.59 0.6 104.29 0.6L104.29 0.6Q100.59 0.6 98.42-1.23 96.24-3.05 96.24-6.7L96.24-6.7 96.24-16.95Q96.24-21 98.77-23.25 101.29-25.5 105.44-25.5L105.44-25.5Q109.59-25.5 111.92-23.28 114.24-21.05 114.24-17.1L114.24-17.1 114.24-10.6 99.04-9.75 99.04-6.7Q99.04-4.3 100.59-3.1 102.14-1.9 104.64-1.9L104.64-1.9Q108.14-1.9 111.89-3.9L111.89-3.9 112.99-1.75ZM111.44-17.45Q111.44-20.55 109.49-21.83 107.54-23.1 105.39-23.1L105.39-23.1Q102.64-23.1 100.84-21.6 99.04-20.1 99.04-16.9L99.04-16.9 99.04-12.5 111.44-13.1 111.44-17.45ZM148.99 0L148.99-17.15Q148.99-20.2 147.21-21.58 145.44-22.95 142.64-22.95L142.64-22.95Q140.94-22.95 139.19-22.48 137.44-22 136.09-21.25L136.09-21.25 136.09 0 133.29 0 133.29-25.05 136.09-25.05 135.89-23.35Q137.09-24.4 138.94-24.93 140.79-25.45 142.79-25.45L142.79-25.45Q145.54-25.45 147.49-24.55L147.49-24.55Q149.49-23.65 150.61-21.85 151.74-20.05 151.74-17.3L151.74-17.3 151.74 0 148.99 0ZM177.63-9.2Q177.63-5 175.33-2.25 173.03 0.5 168.38 0.5L168.38 0.5Q163.73 0.5 161.36-2.27 158.98-5.05 158.98-9.2L158.98-9.2 158.98-15.8Q158.98-20.55 161.41-23.08 163.83-25.6 168.38-25.6L168.38-25.6Q172.73-25.6 175.18-22.98 177.63-20.35 177.63-15.8L177.63-15.8 177.63-9.2ZM174.83-15.8Q174.83-19.55 173.11-21.3 171.38-23.05 168.38-23.05L168.38-23.05Q165.28-23.05 163.53-21.3 161.78-19.55 161.78-15.8L161.78-15.8 161.78-8.7Q161.78-5.7 163.56-3.85 165.33-2 168.38-2L168.38-2Q171.48-2 173.16-3.83 174.83-5.65 174.83-8.7L174.83-8.7 174.83-15.8ZM215.73-9.2Q215.73-5 213.43-2.25 211.13 0.5 206.48 0.5L206.48 0.5Q201.83 0.5 199.45-2.27 197.08-5.05 197.08-9.2L197.08-9.2 197.08-15.8Q197.08-20.55 199.5-23.08 201.93-25.6 206.48-25.6L206.48-25.6Q210.83-25.6 213.28-22.98 215.73-20.35 215.73-15.8L215.73-15.8 215.73-9.2ZM212.93-15.8Q212.93-19.55 211.2-21.3 209.48-23.05 206.48-23.05L206.48-23.05Q203.38-23.05 201.63-21.3 199.88-19.55 199.88-15.8L199.88-15.8 199.88-8.7Q199.88-5.7 201.65-3.85 203.43-2 206.48-2L206.48-2Q209.58-2 211.25-3.83 212.93-5.65 212.93-8.7L212.93-8.7 212.93-15.8ZM236.28 0L236.28-17.15Q236.28-20.2 234.5-21.58 232.73-22.95 229.93-22.95L229.93-22.95Q228.23-22.95 226.48-22.48 224.73-22 223.38-21.25L223.38-21.25 223.38 0 220.58 0 220.58-25.05 223.38-25.05 223.18-23.35Q224.38-24.4 226.23-24.93 228.08-25.45 230.08-25.45L230.08-25.45Q232.83-25.45 234.78-24.55L234.78-24.55Q236.78-23.65 237.9-21.85 239.03-20.05 239.03-17.3L239.03-17.3 239.03 0 236.28 0ZM260.87-1.75Q259.07-0.6 256.77 0 254.47 0.6 252.17 0.6L252.17 0.6Q248.47 0.6 246.3-1.23 244.12-3.05 244.12-6.7L244.12-6.7 244.12-16.95Q244.12-21 246.65-23.25 249.17-25.5 253.32-25.5L253.32-25.5Q257.47-25.5 259.8-23.28 262.12-21.05 262.12-17.1L262.12-17.1 262.12-10.6 246.92-9.75 246.92-6.7Q246.92-4.3 248.47-3.1 250.02-1.9 252.52-1.9L252.52-1.9Q256.02-1.9 259.77-3.9L259.77-3.9 260.87-1.75ZM259.32-17.45Q259.32-20.55 257.37-21.83 255.42-23.1 253.27-23.1L253.27-23.1Q250.52-23.1 248.72-21.6 246.92-20.1 246.92-16.9L246.92-16.9 246.92-12.5 259.32-13.1 259.32-17.45ZM295.87-0.3Q292.77 0.5 289.87 0.5L289.87 0.5Q287.17 0.5 285.37-0.1L285.37-0.1Q282.42-1.1 281.09-3.18 279.77-5.25 279.77-9L279.77-9 279.77-15.4Q279.77-20.35 282.37-22.93 284.97-25.5 289.07-25.5L289.07-25.5Q292.32-25.5 295.77-23.9L295.77-23.9 294.97-21.85Q292.12-23 289.47-23L289.47-23Q286.37-23 284.47-21.23 282.57-19.45 282.57-15.7L282.57-15.7 282.57-8.45Q282.57-5 284.64-3.45 286.72-1.9 290.17-1.9L290.17-1.9Q292.42-1.9 295.27-2.55L295.27-2.55 295.87-0.3ZM318.22 0Q312.81 0.55 310.42 0.55L310.42 0.55Q305.17 0.55 302.06-1.4 298.97-3.35 298.97-8.45L298.97-8.45 298.97-12.6Q298.97-17.55 302.42-19.25L302.42-19.25Q304.06-20.1 306.62-20.1L306.62-20.1Q308.97-20.1 311.37-19.33 313.76-18.55 315.42-17.3L315.42-17.3Q315.42-20.05 313.81-21.68 312.22-23.3 307.67-23.3L307.67-23.3 307.81-25.45Q312.62-25.45 314.89-23.93 317.17-22.4 317.69-20.3 318.22-18.2 318.22-14.9L318.22-14.9 318.22 0ZM315.42-15.15Q313.37-16.1 311.04-16.8 308.72-17.5 306.76-17.5L306.76-17.5Q301.72-17.5 301.72-12.45L301.72-12.45 301.72-8.1Q301.72-4.85 303.97-3.38 306.22-1.9 310.37-1.9L310.37-1.9Q312.51-1.9 315.42-2.3L315.42-2.3 315.42-15.15ZM338.91 0L338.91-17.15Q338.91-20.2 337.14-21.58 335.36-22.95 332.56-22.95L332.56-22.95Q330.86-22.95 329.11-22.48 327.36-22 326.01-21.25L326.01-21.25 326.01 0 323.21 0 323.21-25.05 326.01-25.05 325.81-23.35Q327.01-24.4 328.86-24.93 330.71-25.45 332.71-25.45L332.71-25.45Q335.46-25.45 337.41-24.55L337.41-24.55Q339.41-23.65 340.54-21.85 341.66-20.05 341.66-17.3L341.66-17.3 341.66 0 338.91 0ZM361.96 0L361.96-25.05 364.76-25.05 364.61-23.3Q366.96-25.5 370.76-25.5L370.76-25.5Q372.11-25.5 374.46-25.05L374.46-25.05 373.71-22.5Q372.11-23 370.36-23L370.36-23Q368.06-23 366.41-22.15 364.76-21.3 364.76-19.6L364.76-19.6 364.76 0 361.96 0ZM391.75-1.75Q389.95-0.6 387.65 0 385.35 0.6 383.05 0.6L383.05 0.6Q379.35 0.6 377.18-1.23 375-3.05 375-6.7L375-6.7 375-16.95Q375-21 377.53-23.25 380.05-25.5 384.2-25.5L384.2-25.5Q388.35-25.5 390.68-23.28 393-21.05 393-17.1L393-17.1 393-10.6 377.8-9.75 377.8-6.7Q377.8-4.3 379.35-3.1 380.9-1.9 383.4-1.9L383.4-1.9Q386.9-1.9 390.65-3.9L390.65-3.9 391.75-1.75ZM390.2-17.45Q390.2-20.55 388.25-21.83 386.3-23.1 384.15-23.1L384.15-23.1Q381.4-23.1 379.6-21.6 377.8-20.1 377.8-16.9L377.8-16.9 377.8-12.5 390.2-13.1 390.2-17.45ZM416.05 0Q410.65 0.55 408.25 0.55L408.25 0.55Q403 0.55 399.9-1.4 396.8-3.35 396.8-8.45L396.8-8.45 396.8-12.6Q396.8-17.55 400.25-19.25L400.25-19.25Q401.9-20.1 404.45-20.1L404.45-20.1Q406.8-20.1 409.2-19.33 411.6-18.55 413.25-17.3L413.25-17.3Q413.25-20.05 411.65-21.68 410.05-23.3 405.5-23.3L405.5-23.3 405.65-25.45Q410.45-25.45 412.73-23.93 415-22.4 415.53-20.3 416.05-18.2 416.05-14.9L416.05-14.9 416.05 0ZM413.25-15.15Q411.2-16.1 408.88-16.8 406.55-17.5 404.6-17.5L404.6-17.5Q399.55-17.5 399.55-12.45L399.55-12.45 399.55-8.1Q399.55-4.85 401.8-3.38 404.05-1.9 408.2-1.9L408.2-1.9Q410.35-1.9 413.25-2.3L413.25-2.3 413.25-15.15ZM435.75-0.3Q432.65 0.5 429.75 0.5L429.75 0.5Q427.05 0.5 425.25-0.1L425.25-0.1Q422.3-1.1 420.97-3.18 419.65-5.25 419.65-9L419.65-9 419.65-15.4Q419.65-20.35 422.25-22.93 424.85-25.5 428.95-25.5L428.95-25.5Q432.2-25.5 435.65-23.9L435.65-23.9 434.85-21.85Q432-23 429.35-23L429.35-23Q426.25-23 424.35-21.23 422.45-19.45 422.45-15.7L422.45-15.7 422.45-8.45Q422.45-5 424.52-3.45 426.6-1.9 430.05-1.9L430.05-1.9Q432.3-1.9 435.15-2.55L435.15-2.55 435.75-0.3ZM454.2 0L454.2-17.15Q454.2-20.2 452.42-21.58 450.65-22.95 447.85-22.95L447.85-22.95Q446.15-22.95 444.4-22.48 442.65-22 441.3-21.25L441.3-21.25 441.3 0 438.5 0 438.5-35 441.3-35 441.3-23.7Q442.55-24.55 444.3-25.03 446.05-25.5 447.95-25.5L447.95-25.5Q450.55-25.5 452.7-24.55L452.7-24.55Q454.7-23.65 455.82-21.85 456.95-20.05 456.95-17.3L456.95-17.3 456.95 0 454.2 0Z" opacity="1" transform="matrix(1,0,0,1,0,0)" fill="#000000" class="slogan-text-1" data-fill-palette-color="secondary" id="text-1"></path></svg></g></svg></g></svg></g></svg></g><g transform="matrix(1,0,0,1,110.24727172887533,0)"><svg viewBox="0 0 175.02545654224932 136.7807271991729" height="136.7807271991729" width="175.02545654224932"><g><svg xmlns="http://www.w3.org/2000/svg" xmlns:xlink="http://www.w3.org/1999/xlink" version="1.1" x="0" y="0" viewBox="0.010423529521799202 4 31.990153168177425 25" enable-background="new 0 0 32 32" xml:space="preserve" id="icon-0" width="175.02545654224932" height="136.7807271991729" class="icon-icon-0" data-fill-palette-color="accent"><g fill="#6b7280" data-fill-palette-color="accent"><path fill="#000000" d="M22.17 8.624A40.6 40.6 0 0 0 14.005 7.785C11.295 7.785 8.548 8.067 5.84 8.624 5.49 8.696 5.204 8.95 5.091 9.291 3.649 13.672 3.649 18.114 5.091 22.495A1 1 0 0 0 5.84 23.161 40.7 40.7 0 0 0 14.005 24 40.6 40.6 0 0 0 22.17 23.16C22.522 23.088 22.807 22.834 22.92 22.494 24.361 18.113 24.361 13.671 22.92 9.29A1 1 0 0 0 22.17 8.624M21.969 22.182A39.2 39.2 0 0 1 6.042 22.182C4.661 17.989 4.661 13.797 6.042 9.603A39.2 39.2 0 0 1 21.969 9.603C23.35 13.796 23.35 17.988 21.969 22.182" data-fill-palette-color="accent"></path><path fill="#000000" d="M30.854 6.32A2 2 0 0 0 29.149 4.798C24.789 4.268 20.367 4 16.005 4 11.644 4 7.222 4.268 2.862 4.797A2 2 0 0 0 1.158 6.32 41.4 41.4 0 0 0 1.158 25.68 2 2 0 0 0 2.862 27.201C4.963 27.457 7.078 27.644 9.193 27.777 9.079 27.85 9.005 27.924 9.005 28 9.005 28.553 12.139 29 16.005 29S23.005 28.553 23.005 28C23.005 27.924 22.931 27.85 22.817 27.777 24.932 27.644 27.047 27.457 29.147 27.201 29.977 27.101 30.659 26.494 30.852 25.68A41.4 41.4 0 0 0 30.854 6.32M28.908 25.217A106.8 106.8 0 0 1 3.103 25.217C1.64 19.072 1.64 12.927 3.103 6.783A106.7 106.7 0 0 1 28.908 6.783C30.371 12.927 30.371 19.072 28.908 25.217" data-fill-palette-color="accent"></path><path fill="#000000" d="M26.506 12A1.5 1.5 0 1 0 26.505 8.999 1.5 1.5 0 0 0 26.506 12M26.506 10C26.781 10 27.006 10.225 27.006 10.5S26.781 11 26.506 11 26.006 10.775 26.006 10.5 26.23 10 26.506 10" data-fill-palette-color="accent"></path><path fill="#000000" d="M27.506 22H24.506A0.499 0.499 0 1 0 24.506 23H27.506A0.5 0.5 0 0 0 27.506 22" data-fill-palette-color="accent"></path><path fill="#000000" d="M28.506 19H25.506A0.499 0.499 0 1 0 25.506 20H28.506A0.5 0.5 0 0 0 28.506 19" data-fill-palette-color="accent"></path><path fill="#000000" d="M28.506 16H25.506A0.5 0.5 0 1 0 25.506 17H28.506A0.5 0.5 0 0 0 28.506 16" data-fill-palette-color="accent"></path><path fill="#000000" d="M13.505 11.804L8.919 12.163A0.71 0.71 0 0 0 8.339 12.714L8.034 15.5C8.02 15.775 8.233 16 8.507 16A0.526 0.526 0 0 0 9.025 15.5L9.192 13.605A0.67 0.67 0 0 1 9.756 13.059L13.505 12.802C13.78 12.792 14.005 12.56 14.005 12.284S13.781 11.793 13.505 11.804" data-fill-palette-color="accent"></path></g></svg></g></svg></g><g></g></svg></g><defs></defs></svg><rect width="395.52" height="280.3360698987003" fill="none" stroke="none" visibility="hidden"></rect></g></svg></g></svg>